#!OML:ASF E:\Style4\Style4.ASF
:FULLY-SPECIFIED
:DEGREES
2103
root 0.372731 17.5368 -1.52997 0.0640195 -2.58556 2.79902
lowerback 9.23049 1.75711 -3.54507
upperback 4.87434 2.01472 -2.76587
thorax -0.133009 0.976154 -1.05244
lowerneck 2.51644 -2.96537 -5.66595
upperneck 2.58573 -4.25121 10.0001
head 0.758839 -2.15111 4.29988
rclavicle 4.77083e-015 1.03368e-014
rhumerus -32.816 33.4116 -77.8776
rradius 129.484
rwrist -52.8227
rhand -26.4033 24.9965
rfingers 7.12502
rthumb 0.156237 -4.98322
lclavicle 4.77083e-015 1.03368e-014
lhumerus -15.5116 -35.7944 76.9702
lradius 86.6458
lwrist 34.7697
lhand -16.2319 21.2004
lfingers 7.12502
lthumb 9.97641 50.944
rfemur -18.1321 2.18175 14.161
rtibia 39.1871
rfoot -19.8876 -11.7601
rtoes -12.8396
lfemur -15.3278 0.614932 -22.7982
ltibia 35.9076
lfoot -21.1403 6.9155
ltoes -11.8135
2104
root 0.366729 17.5524 -1.53151 0.191399 -2.53307 2.82527
lowerback 9.08936 1.88499 -3.47822
upperback 4.84909 2.19745 -2.70611
thorax -0.0834845 1.06774 -1.04064
lowerneck 2.46373 -3.13237 -5.56777
upperneck 2.43906 -4.45687 9.78746
head 0.730338 -2.25387 4.20184
rclavicle -2.18663e-015 1.98785e-015
rhumerus -30.4887 32.8454 -76.1293
rradius 129.877
rwrist -53.6234
rhand -25.9972 24.1767
rfingers 7.12502
rthumb 0.548424 -5.80236
lclavicle -2.18663e-015 1.98785e-015
lhumerus -16.9274 -36.5691 77.3063
lradius 87.174
lwrist 34.3014
lhand -16.0951 21.1946
lfingers 7.12502
lthumb 10.1084 50.9318
rfemur -18.0964 2.2343 14.1515
rtibia 38.8696
rfoot -19.7458 -11.8043
rtoes -12.6768
lfemur -15.2981 0.569173 -22.8113
ltibia 35.5452
lfoot -20.9521 7.00411
ltoes -12.0513
2105
root 0.362183 17.5687 -1.53106 0.297402 -2.46002 2.82329
lowerback 9.00589 1.99186 -3.36215
upperback 4.80296 2.35189 -2.6367
thorax -0.0856111 1.14657 -1.04572
lowerneck 2.4438 -3.30744 -5.54557
upperneck 2.28047 -4.67682 9.63017
head 0.696443 -2.36529 4.13972
rclavicle 1.19271e-015 -2.26615e-014
rhumerus -28.2748 32.4024 -74.5656
rradius 130.078
rwrist -53.9333
rhand -25.9823 23.9377
rfingers 7.12502
rthumb 0.562888 -6.04128
lclavicle 1.19271e-015 -2.26615e-014
lhumerus -18.4217 -37.2684 77.715
lradius 87.7378
lwrist 33.8575
lhand -15.9014 21.2857
lfingers 7.12502
lthumb 10.2953 51.0137
rfemur -18.016 2.26607 14.1658
rtibia 38.5384
rfoot -19.6028 -11.8591
rtoes -12.5367
lfemur -15.2301 0.552636 -22.8032
ltibia 35.1954
lfoot -20.7291 7.08488
ltoes -12.6122
2106
root 0.357644 17.5842 -1.53034 0.3836 -2.36883 2.76421
lowerback 8.96011 2.10223 -3.17535
upperback 4.74175 2.51375 -2.55831
thorax -0.121447 1.2306 -1.08322
lowerneck 2.44245 -3.49868 -5.53423
upperneck 2.17884 -4.9238 9.49851
head 0.680632 -2.48987 4.08885
rclavicle 1.03368e-014 4.37326e-015
rhumerus -26.2336 31.945 -73.1701
rradius 130.2
rwrist -53.8959
rhand -26.1655 23.7151
rfingers 7.12502
rthumb 0.38589 -6.26424
lclavicle 1.03368e-014 4.37326e-015
lhumerus -19.9525 -38.0135 78.1738
lradius 88.2341
lwrist 33.3968
lhand -15.7217 21.2926
lfingers 7.12502
lthumb 10.4686 51.0119
rfemur -17.8904 2.26807 14.2432
rtibia 38.1953
rfoot -19.4966 -11.8733
rtoes -12.4693
lfemur -15.1304 0.494746 -22.7307
ltibia 34.8369
lfoot -20.5318 7.12408
ltoes -12.7194
2107
root 0.350917 17.5988 -1.53052 0.410173 -2.28168 2.82344
lowerback 9.01433 2.22507 -3.13524
upperback 4.67375 2.67511 -2.48271
thorax -0.22446 1.3123 -1.04609
lowerneck 2.43636 -3.68355 -5.52525
upperneck 2.13212 -5.16382 9.26544
head 0.679196 -2.61019 4.00201
rclavicle -1.30204e-014 6.75868e-015
rhumerus -24.2886 31.4721 -71.8049
rradius 130.31
rwrist -53.7979
rhand -26.214 23.4405
rfingers 7.12502
rthumb 0.339074 -6.53897
lclavicle -1.30204e-014 6.75868e-015
lhumerus -21.5017 -38.8214 78.6741
lradius 88.7215
lwrist 33.1832
lhand -15.8443 21.2615
lfingers 7.12502
lthumb 10.3504 50.9868
rfemur -17.7055 2.33468 14.2004
rtibia 37.8469
rfoot -19.3123 -12.0284
rtoes -12.834
lfemur -14.9627 0.386007 -22.7761
ltibia 34.4541
lfoot -20.4016 7.14137
ltoes -12.474
2108
root 0.34696 17.6149 -1.52691 0.45595 -2.22291 2.91039
lowerback 8.99279 2.33998 -3.10473
upperback 4.62214 2.82995 -2.40946
thorax -0.269383 1.39004 -1.0022
lowerneck 2.38684 -3.83491 -5.55793
upperneck 2.08818 -5.35903 9.05745
head 0.684175 -2.7074 3.93185
rclavicle -2.9122e-014 4.37326e-015
rhumerus -22.3197 31.0034 -70.4463
rradius 130.369
rwrist -53.6237
rhand -26.1918 23.1843
rfingers 7.12502
rthumb 0.360502 -6.79512
lclavicle -2.9122e-014 4.37326e-015
lhumerus -22.9936 -39.5907 79.108
lradius 89.2078
lwrist 33.1382
lhand -15.9231 21.132
lfingers 7.12502
lthumb 10.2743 50.8611
rfemur -17.5205 2.37753 14.1113
rtibia 37.4856
rfoot -19.1405 -12.122
rtoes -13.0316
lfemur -14.7896 0.325131 -22.8636
ltibia 34.0524
lfoot -20.3203 7.17832
ltoes -12.4198
2109
root 0.344242 17.6296 -1.52292 0.583556 -2.16365 2.9672
lowerback 8.8512 2.45745 -3.01744
upperback 4.56235 2.99844 -2.35274
thorax -0.253648 1.47532 -1.00299
lowerneck 2.36286 -3.98686 -5.50889
upperneck 2.02176 -5.55285 8.8513
head 0.674248 -2.80411 3.84746
rclavicle -1.88845e-015 4.77083e-015
rhumerus -20.3581 30.378 -69.1466
rradius 130.306
rwrist -53.5644
rhand -26.5545 22.9599
rfingers 7.12502
rthumb 0.0101503 -7.01988
lclavicle -1.88845e-015 4.77083e-015
lhumerus -24.4774 -40.3469 79.5466
lradius 89.6916
lwrist 33.0333
lhand -15.9159 21.0321
lfingers 7.12502
lthumb 10.2813 50.7608
rfemur -17.4215 2.39468 14.0455
rtibia 37.113
rfoot -18.9981 -12.1756
rtoes -12.855
lfemur -14.705 0.285002 -22.9263
ltibia 33.6583
lfoot -20.1463 7.28296
ltoes -12.7666
2110
root 0.339493 17.6469 -1.5208 0.727264 -2.11081 2.93671
lowerback 8.72789 2.58252 -2.81752
upperback 4.48764 3.1838 -2.30913
thorax -0.256682 1.57118 -1.08229
lowerneck 2.37535 -4.17789 -5.34276
upperneck 1.92557 -5.79553 8.60966
head 0.64639 -2.9255 3.7291
rclavicle -8.44835e-015 1.98785e-015
rhumerus -18.3912 29.6015 -67.9374
rradius 130.108
rwrist -53.6636
rhand -27.207 22.8165
rfingers 7.12502
rthumb -0.619997 -7.1623
lclavicle -8.44835e-015 1.98785e-015
lhumerus -25.9991 -41.1303 79.9814
lradius 90.2796
lwrist 33.0821
lhand -15.8038 21.174
lfingers 7.12502
lthumb 10.3894 50.8973
rfemur -17.3528 2.46571 14.0904
rtibia 36.7353
rfoot -18.8284 -12.2839
rtoes -12.8554
lfemur -14.663 0.246282 -22.8808
ltibia 33.2922
lfoot -20.006 7.34165
ltoes -12.8141
2111
root 0.331091 17.6635 -1.52056 0.837674 -2.02959 2.81901
lowerback 8.67361 2.69793 -2.57085
upperback 4.42019 3.35704 -2.2231
thorax -0.28903 1.66127 -1.14566
lowerneck 2.38092 -4.36407 -5.26113
upperneck 1.83141 -6.03472 8.43047
head 0.62438 -3.04552 3.64935
rclavicle -5.10877e-014 2.18663e-014
rhumerus -16.4073 28.7656 -66.7662
rradius 129.767
rwrist -53.7405
rhand -27.332 22.8867
rfingers 7.12502
rthumb -0.740757 -7.09173
lclavicle -5.10877e-014 2.18663e-014
lhumerus -27.5474 -41.863 80.4299
lradius 90.873
lwrist 33.1297
lhand -15.7801 21.1861
lfingers 7.12502
lthumb 10.4123 50.9083
rfemur -17.2549 2.6564 14.2515
rtibia 36.3747
rfoot -18.6517 -12.476
rtoes -13.1164
lfemur -14.6098 0.200972 -22.7183
ltibia 32.944
lfoot -19.8401 7.32392
ltoes -12.705
2112
root 0.322296 17.6778 -1.52205 0.943142 -1.92971 2.78856
lowerback 8.65034 2.80519 -2.38697
upperback 4.35462 3.51301 -2.16983
thorax -0.336903 1.74203 -1.2078
lowerneck 2.38584 -4.53418 -5.21791
upperneck 1.75209 -6.25452 8.2704
head 0.607238 -3.1559 3.584
rclavicle -4.8901e-014 2.64384e-014
rhumerus -14.5126 27.8629 -65.7156
rradius 129.313
rwrist -53.6595
rhand -27.2077 22.8979
rfingers 7.12502
rthumb -0.620722 -7.08093
lclavicle -4.8901e-014 2.64384e-014
lhumerus -29.1543 -42.6237 80.8914
lradius 91.4587
lwrist 33.0672
lhand -15.9821 21.1026
lfingers 7.12502
lthumb 10.2174 50.8344
rfemur -17.1648 2.83099 14.3104
rtibia 36.0365
rfoot -18.5646 -12.5746
rtoes -12.5644
lfemur -14.5629 0.131548 -22.6553
ltibia 32.5985
lfoot -19.6451 7.33835
ltoes -12.6437
2113
root 0.314549 17.6905 -1.52262 1.0202 -1.85286 2.87483
lowerback 8.63274 2.91416 -2.34023
upperback 4.30856 3.6611 -2.12377
thorax -0.374701 1.81663 -1.20014
lowerneck 2.38537 -4.7221 -5.15733
upperneck 1.67709 -6.49638 8.00937
head 0.588971 -3.27698 3.48026
rclavicle -2.85256e-014 6.55989e-015
rhumerus -12.6291 26.9643 -64.7083
rradius 128.767
rwrist -53.6032
rhand -27.2332 22.7504
rfingers 7.12502
rthumb -0.645339 -7.22833
lclavicle -2.85256e-014 6.55989e-015
lhumerus -30.7172 -43.3312 81.3969
lradius 92.0151
lwrist 32.9861
lhand -15.9291 21.1348
lfingers 7.12502
lthumb 10.2685 50.8641
rfemur -17.0702 2.92208 14.238
rtibia 35.733
rfoot -18.487 -12.6825
rtoes -12.4379
lfemur -14.4642 0.0485663 -22.7241
ltibia 32.2367
lfoot -19.4368 7.37741
ltoes -12.7409
2114
root 0.307893 17.7035 -1.52099 1.11735 -1.78868 2.98979
lowerback 8.5532 3.01009 -2.33209
upperback 4.25854 3.79159 -2.06775
thorax -0.385781 1.88165 -1.15585
lowerneck 2.40564 -4.91399 -5.12994
upperneck 1.61549 -6.74554 7.72538
head 0.571392 -3.40209 3.37587
rclavicle 1.98785e-015 -5.56597e-015
rhumerus -10.7628 26.1838 -63.7359
rradius 128.083
rwrist -53.4998
rhand -27.3542 22.9801
rfingers 7.12502
rthumb -0.762181 -6.9983
lclavicle 1.98785e-015 -5.56597e-015
lhumerus -32.3284 -43.9324 81.937
lradius 92.5926
lwrist 32.9131
lhand -15.7511 20.9994
lfingers 7.12502
lthumb 10.4402 50.7202
rfemur -16.9958 2.95363 14.129
rtibia 35.4575
rfoot -18.3799 -12.7696
rtoes -12.5672
lfemur -14.3822 -0.0121549 -22.8335
ltibia 31.884
lfoot -19.245 7.4423
ltoes -12.8819
2115
root 0.300471 17.7157 -1.52047 1.24213 -1.67881 3.07693
lowerback 8.44757 3.12215 -2.24773
upperback 4.19681 3.94984 -2.03031
thorax -0.388466 1.9619 -1.1741
lowerneck 2.52805 -5.09822 -5.08564
upperneck 1.48445 -6.98522 7.51217
head 0.514598 -3.52477 3.29762
rclavicle -5.10877e-014 9.34288e-015
rhumerus -9.02889 25.341 -62.8634
rradius 127.304
rwrist -53.1919
rhand -27.4943 23.1739
rfingers 7.12502
rthumb -0.8975 -6.80396
lclavicle -5.10877e-014 9.34288e-015
lhumerus -34.0189 -44.6868 82.4901
lradius 93.2042
lwrist 32.7914
lhand -15.6901 20.8462
lfingers 7.12502
lthumb 10.4991 50.564
rfemur -16.9574 2.92321 14.051
rtibia 35.1969
rfoot -18.2714 -12.8201
rtoes -12.405
lfemur -14.3454 -0.11974 -22.9098
ltibia 31.5491
lfoot -19.1452 7.44303
ltoes -12.6095
